<?xml version="1.0" standalone="no"?>
<!DOCTYPE svg PUBLIC "-//W3C//DTD SVG 20010904//EN"
 "http://www.w3.org/TR/2001/REC-SVG-20010904/DTD/svg10.dtd">
<svg version="1.0" xmlns="http://www.w3.org/2000/svg"
 width="94.000000pt" height="150.000000pt" viewBox="0 0 94.000000 150.000000"
 preserveAspectRatio="xMidYMid meet">

<g transform="translate(0.000000,150.000000) scale(0.100000,-0.100000)"
fill="#000000" stroke="none">
<path d="M256 1179 c-4 -15 -21 -108 -31 -174 -6 -40 -6 -40 13 -20 11 11 34
45 51 76 l31 56 -22 29 c-34 46 -37 48 -42 33z"/>
<path d="M640 696 c0 -8 -7 -19 -15 -26 -8 -7 -13 -16 -10 -20 3 -5 0 -14 -7
-22 -7 -7 -29 -34 -48 -58 -19 -25 -50 -62 -70 -84 -19 -21 -34 -42 -33 -47 2
-5 -4 -9 -11 -9 -8 0 -27 -11 -41 -24 -15 -14 -32 -27 -38 -29 -9 -3 -9 -8 1
-18 6 -7 12 -17 12 -23 0 -5 -6 -2 -13 8 -13 18 -16 17 -58 -10 -24 -16 -50
-35 -57 -42 -8 -7 -18 -10 -23 -7 -5 4 -9 2 -9 -4 0 -5 -24 -17 -53 -26 -70
-22 -118 -47 -114 -60 2 -5 15 -14 29 -19 20 -7 30 -5 43 7 19 20 35 14 35
-14 0 -15 7 -19 39 -19 25 0 41 5 45 15 8 21 24 19 31 -5 9 -28 63 -28 73 1 7
19 9 19 21 5 19 -23 51 -21 51 3 0 28 18 36 39 16 23 -20 71 -10 79 17 3 14 7
16 18 7 24 -20 64 -2 71 31 6 35 10 36 35 13 24 -22 52 -7 56 31 4 28 12 32
29 15 6 -6 21 -9 34 -7 18 2 25 10 27 31 4 29 11 34 28 17 7 -7 18 -2 33 14
14 15 19 26 12 31 -22 13 -11 27 18 22 21 -4 31 -2 35 9 12 31 6 39 -28 39
-25 0 -49 -12 -93 -47 -33 -26 -84 -60 -114 -77 -122 -66 -369 -128 -354 -88
3 7 18 18 33 25 68 31 288 250 269 268 -3 4 7 19 23 35 47 47 48 67 6 105 -20
18 -36 27 -36 20z"/>
</g>
</svg>
